<?xml version="1.0" encoding="utf-8"?>
<!-- Generator: Adobe Illustrator 18.0.0, SVG Export Plug-In . SVG Version: 6.00 Build 0)  -->
<!DOCTYPE svg PUBLIC "-//W3C//DTD SVG 1.1//EN" "http://www.w3.org/Graphics/SVG/1.1/DTD/svg11.dtd">
<svg version="1.1" id="Capa_1" xmlns="http://www.w3.org/2000/svg" xmlns:xlink="http://www.w3.org/1999/xlink" x="0px" y="0px"
	 viewBox="0 0 512 512" enable-background="new 0 0 512 512" xml:space="preserve">
<g>
	<path d="M382.7,110.5c13.3-9.6,22.3-24.3,24.7-40.4c0.2-1.1,0.1-2.2-0.2-3.2c0.1-1.4,0.2-2.9,0.3-4.4c0.3-10-2-19.7-6.4-28.5
		c-0.1-1-0.4-1.9-0.9-2.8C389.2,12,368.8,0,347.1,0c0,0,0,0,0,0c-0.1,0-0.2,0-0.3,0c-0.1,0-0.2,0-0.3,0c0,0,0,0-0.1,0
		c-16.4,0-31.7,6.4-43.3,18c-2.6,2.6-6.1,3.9-9.7,3.6c-0.7-0.1-1.4-0.2-2.1-0.4c-8.3-2.4-20.8-5.2-33.5-5.2c-0.7,0-1.3,0-1.9,0
		c-0.6,0-1.3,0-1.9,0c-12.7,0-25.2,2.9-33.5,5.2c-0.7,0.2-1.4,0.3-2.1,0.4c-3.6,0.2-7.1-1.1-9.7-3.6C197.3,6.4,181.9,0,165.6,0
		c0,0,0,0-0.1,0c-0.1,0-0.2,0-0.3,0c-0.1,0-0.2,0-0.3,0c0,0,0,0,0,0c-21.8,0-42.1,12-53.1,31.3c-0.5,0.9-0.8,1.9-0.9,2.8
		c-4.4,8.8-6.6,18.5-6.4,28.5c0,1.5,0.1,2.9,0.3,4.4c-0.3,1-0.4,2.1-0.2,3.2c2.4,16.1,11.4,30.8,24.7,40.4c3.9,2.8,5.9,7.4,5.3,12
		c-1,7-1.4,12.6-1.4,16.6c0.1,23.7,7,46.7,20,66.4c1.6,2.4,2.2,5.1,1.9,7.8c-0.5,3.3-2.3,6.4-5.3,8.5
		c-16.3,11.6-35.8,33.1-35.8,69.9c0,0.1,0.1,3.2,0.2,6.7c-0.2,4.4-0.3,9.4-0.2,9.9c0.1,14,6.7,29.8,17.3,39.6
		c-16.4,30.4-25,64.8-25,99.9c-0.5,35.3,28.7,64.5,63.6,64.4c0.1,0,0.2,0,0.3,0c0.1,0,0.2,0,0.3,0c29.7,0,54.6-20.4,61.6-47.9
		c7.6-2.9,15.6-4.4,23.8-4.5c8.2,0.1,16.2,1.6,23.8,4.5c7,27.5,32,47.9,61.6,47.9c0.1,0,0.2,0,0.3,0c0.1,0,0.2,0,0.3,0
		c34.9,0.1,64.1-29,63.6-64.4c0-35.1-8.6-69.5-25-99.9c10.6-9.8,17.2-25.5,17.3-39.6c0.1-0.4-0.1-5.4-0.2-9.9
		c0.1-3.4,0.2-6.6,0.2-6.7c0-36.8-19.4-58.3-35.8-69.9c-3-2.1-4.8-5.2-5.3-8.5c-0.2-2.7,0.4-5.4,1.9-7.8
		c12.9-19.8,19.8-42.7,20-66.4c0-4-0.5-9.6-1.4-16.6C376.8,117.9,378.8,113.3,382.7,110.5z M281.9,426.1c-2.5,6.8-3.9,13.9-4,21.3
		c-6.9-1.9-14.1-2.8-21.4-2.8c-0.2,0-0.3,0-0.5,0c-0.2,0-0.3,0-0.5,0c-7.3,0-14.4,1-21.4,2.8c-0.1-7.3-1.4-14.5-4-21.3
		c-0.4-1-1-1.9-1.7-2.6c-4.5-10.6-11.8-19.7-20.9-26.4c-0.5-0.7-1.1-1.3-1.8-1.7c-10.4-6.9-22.6-10.6-35.1-10.6c-0.1,0-0.2,0-0.3,0
		c-0.1,0-0.2,0-0.3,0c-16.3,0-31.1,6.2-42.4,16.2c3.7-15.4,9.3-30.2,16.6-44.1c7.8,4,16.5,6.2,25.5,6.2c0.1,0,0.2,0,0.3,0
		c0.1,0,0.2,0,0.2,0c14.9,0,28.9-5.8,39.4-16.3c21.7-21.7,21.7-57.1,0-78.8c-10.5-10.5-24.5-16.3-39.4-16.3c-0.3,0-0.6,0-0.9,0
		c-0.2,0-0.4,0-0.6,0c-0.4,0-0.8,0-1.2,0c-11.6,0.5-23.1,4.5-32.5,12c5.8-13.5,15.3-23,23.8-29.2c6.3-4.7,10.1-11.5,11.1-18.8
		c1-6.4-0.2-13.2-4-19c-11.2-17.3-17.1-37.5-17.1-58.2c0-3.2,0.4-8.1,1.2-14.1c1.3-10.1-3-20.1-11.4-26.1
		c-11.8-8.5-18.7-21.7-19.1-36.1c-0.3-12.3,4.4-24.1,13.2-33.2c8.3-8.5,19-13.4,30.4-14c0.1,0,0.2,0,0.3,0c0.6,0,1.2,0,1.8,0
		c12.2,0.1,23.7,4.9,32.4,13.6c5.9,5.9,14,8.8,22.1,8.1c1.8-0.1,3.7-0.4,5.5-0.9c7.3-2,18.4-4.4,30.9-4.6
		c12.5,0.2,23.6,2.6,30.9,4.6c1.8,0.5,3.6,0.8,5.5,0.9c8.1,0.7,16.2-2.1,22.1-8.1c8.6-8.7,20.1-13.5,32.4-13.6c0.6,0,1.2,0,1.8,0
		c0.1,0,0.2,0,0.3,0c11.4,0.6,22.1,5.5,30.4,14c8.8,9.1,13.5,20.8,13.2,33.2c-0.4,14.5-7.3,27.6-19.1,36.1c-8.4,6-12.7,16-11.4,26.1
		c0.8,6,1.2,10.9,1.2,14.1c0,20.8-5.9,40.9-17.1,58.2c-3.8,5.9-5,12.6-4,19c0.9,7.2,4.8,14.1,11.1,18.8c8.5,6.2,17.9,15.7,23.8,29.2
		c-9.5-7.5-20.9-11.6-32.5-12c-0.4,0-0.8,0-1.2,0c-0.2,0-0.4,0-0.6,0c-0.3,0-0.6,0-0.9,0c-14.9,0-28.9,5.8-39.4,16.3
		c-21.7,21.7-21.7,57.1,0,78.8c10.5,10.5,24.5,16.3,39.4,16.3c0.1,0,0.2,0,0.2,0c0.1,0,0.2,0,0.3,0c9,0,17.7-2.2,25.5-6.2
		c7.3,13.9,12.9,28.8,16.6,44.1c-11.3-10.1-26.1-16.2-42.4-16.2c-0.1,0-0.2,0-0.3,0c-0.1,0-0.2,0-0.3,0c-12.6,0-24.7,3.7-35.1,10.6
		c-0.7,0.5-1.3,1.1-1.8,1.7c-9.1,6.7-16.4,15.8-20.9,26.4C282.8,424.2,282.2,425.1,281.9,426.1z M194.7,275.2
		c0.6,0.5,1.2,0.8,1.9,1.1c0.9,0.7,1.7,1.5,2.5,2.3c5.5,5.5,9,12.1,10.7,19.1c-0.2,0.9-0.2,1.8,0,2.7c2.3,13.1-1.9,26.5-11.3,35.9
		c-7.6,7.6-17.8,11.9-28.5,11.9c-10.8-0.1-20.8-4.3-28.5-11.9c-7.7-7.7-11.9-17.9-11.9-28.8s4.2-21.1,11.9-28.8
		c7.6-7.6,17.6-11.8,28.3-11.9C178.6,266.7,187.4,269.5,194.7,275.2z M122,448.4c0-26.7,21.6-48.4,48.3-48.6
		c26.7,0.1,48.3,21.9,48.3,48.6c0,26.7-21.6,48.4-48.3,48.6C143.6,496.9,122,475.1,122,448.4z M342,348.1
		c-10.8-0.1-20.9-4.3-28.5-11.9c-9.4-9.4-13.6-22.8-11.3-35.9c0.2-0.9,0.1-1.8,0-2.7c1.7-7,5.3-13.6,10.7-19.1
		c0.8-0.8,1.6-1.6,2.5-2.3c0.7-0.3,1.3-0.6,1.9-1.1c7.3-5.7,16.1-8.5,24.9-8.6c10.7,0.1,20.8,4.3,28.3,11.9
		c7.7,7.7,11.9,17.9,11.9,28.8s-4.2,21.1-11.9,28.8C362.9,343.8,352.8,348,342,348.1z M293.5,448.4c0-26.7,21.7-48.5,48.3-48.6
		c26.6,0.2,48.3,21.9,48.3,48.6c0,26.7-21.7,48.5-48.3,48.6C315.1,496.8,293.5,475.1,293.5,448.4z"/>
	<path d="M315.5,184.9c0-12.1-6.5-23.3-18.4-31.5c-10.1-7.1-25.9-12-40.8-11.8c-0.1,0-0.2,0-0.3,0c-0.1,0-0.2,0-0.3,0
		c-14.9-0.1-30.7,4.7-40.8,11.8c-11.8,8.2-18.4,19.4-18.4,31.5s6.5,23.3,18.4,31.5c11,7.6,25.5,11.8,40.8,11.8c0.1,0,0.2,0,0.3,0
		c0.1,0,0.2,0,0.3,0c15.3,0,29.8-4.2,40.8-11.8C309,208.2,315.5,197,315.5,184.9z M261.2,213.1c-0.2,0-0.4,0-0.6,0
		c-1.5,0.1-3,0.2-4.6,0.2c-1.5,0-3.1-0.1-4.6-0.2c-0.2,0-0.4,0-0.6,0c-10-0.7-19.1-3.7-26-8.1c-0.4-0.5-0.8-0.9-1.4-1.3
		c-7.3-5.3-11.3-11.9-11.3-18.8c0-8.1,5.6-15.6,14.5-20.8c-0.5,13.5,12.8,24.1,28.6,24.1c0.3,0,0.6,0,0.8,0c0.3,0,0.5,0,0.8,0
		c15.8,0,29-10.6,28.6-24.1c8.9,5.2,14.5,12.7,14.5,20.8c0,6.9-4,13.5-11.3,18.8c-0.5,0.4-1,0.8-1.4,1.3
		C280.3,209.4,271.2,212.4,261.2,213.1z M268.8,164.9c0,3.8-5.2,8-12.8,8.3c-7.6-0.3-12.8-4.5-12.8-8.3c0-3.8,5.2-8,12.8-8.3
		C263.6,156.9,268.8,161.1,268.8,164.9z"/>
	<path d="M196.5,61c0-17.1-13.9-31-31-31c-0.1,0-0.2,0-0.3,0c-0.1,0-0.2,0-0.3,0c-17.1,0-31,13.9-31,31s13.9,31,31,31
		c0.1,0,0.2,0,0.3,0c0.1,0,0.2,0,0.3,0C182.6,92,196.5,78.1,196.5,61z M149.5,61c0-8.7,7-15.8,15.7-16c8.7,0.2,15.7,7.3,15.7,16
		s-7,15.8-15.7,16C156.6,76.8,149.5,69.7,149.5,61z"/>
	<path d="M208.5,140.7c0.1,0,0.2,0,0.3,0c12.9,0,23.3-11.8,23.3-26.2s-10.5-26.2-23.3-26.2c-0.1,0-0.2,0-0.3,0c-0.1,0-0.2,0-0.3,0
		c-12.9,0-23.3,11.8-23.3,26.2s10.5,26.2,23.3,26.2C208.3,140.7,208.4,140.7,208.5,140.7z M216.5,114.5c0,5.9-3.6,11-8,11.2
		c-4.4-0.2-8-5.3-8-11.2c0-5.9,3.6-11,8-11.2C212.9,103.5,216.5,108.5,216.5,114.5z"/>
	<path d="M303.2,140.7c0.1,0,0.2,0,0.3,0c0.1,0,0.2,0,0.3,0c12.9,0,23.3-11.8,23.3-26.2s-10.5-26.2-23.3-26.2c-0.1,0-0.2,0-0.3,0
		c-0.1,0-0.2,0-0.3,0c-12.9,0-23.3,11.8-23.3,26.2C279.9,129,290.3,140.7,303.2,140.7z M311.5,114.5c0,5.9-3.6,11-8,11.2
		c-4.4-0.2-8-5.3-8-11.2c0-5.9,3.6-11,8-11.2C307.9,103.5,311.5,108.5,311.5,114.5z"/>
	<path d="M346.5,92c0.1,0,0.2,0,0.3,0c0.1,0,0.2,0,0.3,0c17.1,0,31-13.9,31-31s-13.9-31-31-31c-0.1,0-0.2,0-0.3,0
		c-0.1,0-0.2,0-0.3,0c-17.1,0-31,13.9-31,31S329.4,92,346.5,92z M362.5,61c0,8.7-7,15.8-15.7,16c-8.7-0.2-15.7-7.3-15.7-16
		s7-15.8,15.7-16C355.4,45.2,362.5,52.3,362.5,61z"/>
</g>
</svg>
